<?xml version="1.0" encoding="UTF-8"?><svg id="Capa_1" xmlns="http://www.w3.org/2000/svg" viewBox="0 0 3369.53 768.9"><g isolation="isolate"><path d="M1170.39,515.44V198.08h151.22v558.04h-139.51v-68.16c-29.12,53.97-83.78,80.94-164.01,80.94-65.33,0-115.55-20.05-150.69-60.17-35.14-40.1-52.71-94.25-52.71-162.4V198.08h151.22v331.2c0,73.13,30.88,109.69,92.65,109.69,36.91,0,64.78-10.65,83.6-31.95,18.8-21.3,28.22-51.82,28.22-91.59Z" fill="#fff" stroke-width="0"/></g><g isolation="isolate"><path d="M1775.3,193.82v141.64c-10.65-2.13-20.6-3.19-29.82-3.19-44.73,0-78.27,11.71-100.64,35.14-22.36,23.43-33.55,60.35-33.55,110.76v277.95h-151.22V198.08h139.51v72.42c31.95-51.82,84.48-77.74,157.61-77.74l18.1,1.07Z" fill="#fff" stroke-width="0"/></g><g isolation="isolate"><path d="M2303.51,684.24c-53.96,56.44-124.6,84.66-211.93,84.66s-157.98-28.22-211.93-84.66c-53.96-56.45-80.93-125.48-80.93-207.14s26.97-150.69,80.93-207.13c53.95-56.45,124.6-84.67,211.93-84.67s157.96,28.22,211.93,84.67c53.95,56.44,80.94,125.5,80.94,207.13s-26.99,150.69-80.94,207.14ZM1989.88,361.02c-26.62,28.4-39.93,67.09-39.93,116.08s13.31,87.69,39.93,116.08c26.62,28.4,60.52,42.6,101.71,42.6s75.08-14.2,101.7-42.6c26.62-28.39,39.93-67.09,39.93-116.08s-13.31-87.68-39.93-116.08c-26.62-28.39-60.54-42.6-101.7-42.6s-75.08,14.21-101.71,42.6Z" fill="#fff" stroke-width="0"/></g><g isolation="isolate"><path d="M2802.99,193.82v141.64c-10.65-2.13-20.6-3.19-29.82-3.19-44.73,0-78.27,11.71-100.64,35.14-22.36,23.43-33.55,60.35-33.55,110.76v277.95h-151.22V198.08h139.51v72.42c31.95-51.82,84.48-77.74,157.61-77.74l18.1,1.07Z" fill="#fff" stroke-width="0"/></g><g isolation="isolate"><path d="M3040.46,768.9c-62.48,0-110.76-15.61-144.84-46.86-34.08-31.23-51.12-72.76-51.12-124.6,0-48.79,17.59-87.69,52.76-116.68,35.18-28.99,89.57-49.15,163.19-60.5l149.33-23.03v-5.32c0-54.66-33.38-82-100.11-82-62.48,0-96.91,22.73-103.3,68.16h-149.09c4.96-54.66,27.69-100.46,68.16-137.38,40.47-36.91,101.52-55.38,183.17-55.38s141.99,18.1,183.18,54.31c41.16,36.21,61.76,87.33,61.76,153.35v263.04c0,41.9,5.33,75.26,15.97,100.11h-145.9c-.72,0-1.43-2.48-2.13-7.46-.71-4.96-1.6-12.59-2.66-22.89-1.07-10.28-1.6-20.77-1.6-31.42-34.79,49.7-93.71,74.55-176.78,74.55ZM3209.79,505.99l-134.02,22.25c-56.91,9.85-85.36,31.68-85.36,65.46,0,38.7,28.04,58.06,84.13,58.06,43.3,0,76.68-11.27,100.1-33.8,23.43-22.53,35.14-52.47,35.14-89.79v-22.18Z" fill="#fff" stroke-width="0"/></g><polygon points="290.97 768.9 0 768.9 276.68 215.55 290.97 768.9" fill="#fff" stroke-width="0"/><polygon points="768.9 768.9 477.93 768.9 492.22 215.55 768.9 768.9" fill="#fff" stroke-width="0"/><polygon points="492.22 215.55 477.93 768.9 384.45 182.29 290.97 768.9 276.68 215.55 384.45 0 492.22 215.55" fill="#eaeaea" stroke-width="0"/></svg>