<?xml version="1.0" encoding="utf-8"?>
<!-- Generator: Adobe Illustrator 28.3.0, SVG Export Plug-In . SVG Version: 6.00 Build 0)  -->
<svg version="1.1" id="Capa_1" xmlns="http://www.w3.org/2000/svg" xmlns:xlink="http://www.w3.org/1999/xlink" x="0px" y="0px"
	 viewBox="0 0 1024.3 247.8" style="enable-background:new 0 0 1024.3 247.8;" xml:space="preserve">
<g>
	<path d="M223.1,0H24.7C11,0,0,11,0,24.7v198.4c0,13.6,11,24.7,24.7,24.7h198.4c13.6,0,24.7-11,24.7-24.7V24.7
		C247.8,11,236.7,0,223.1,0z M226.3,53.3c-7.8,9.7-22.1,11.3-31.8,3.5l-39.4,37.6c0.6,0.8,1.2,1.6,1.7,2.5c0.2,0.3,0.3,0.6,0.5,0.8
		c0.2,0.3,0.3,0.6,0.5,0.9c0.1,0.2,0.2,0.5,0.4,0.7c0.1,0.3,0.3,0.5,0.4,0.8c5.4,11.1,4,24.5-4.1,34.3l31.2,31.3
		c0.5-0.3,1-0.6,1.6-0.9l0.1,0c0.2-0.1,0.5-0.2,0.7-0.3l0.4-0.2l0.6-0.2c0.3-0.1,0.7-0.2,1-0.2l0.4-0.1l0.8-0.1h0.4
		c0.4-0.1,0.8-0.1,1.2-0.1c0.9,0,1.8,0.1,2.8,0.3c7.3,1.5,12,8.7,10.5,16c-1.5,7.3-8.7,12-16,10.5c-0.9-0.2-1.7-0.4-2.5-0.8
		c-5-2.1-8.3-7-8.3-12.5c0-0.4,0.1-0.8,0.1-1.2v-0.4c0-0.3,0-0.7,0.1-0.8c0.1-0.1,0.1-0.3,0.1-0.4c0.1-0.3,0.2-0.7,0.2-1l0.2-0.6
		l0.2-0.4c0.1-0.2,0.2-0.5,0.3-0.7c0,0,0-0.1,0-0.1c0.2-0.5,0.5-1,0.8-1.5l-31.2-31.3c-12,9.9-29.3,9.8-41.1-0.4l-51.5,49.2
		c6,8.3,5.8,19.7-0.7,27.7c-7.9,9.8-22.2,11.3-32,3.4c-9.8-7.9-11.3-22.2-3.4-32c7.9-9.8,22.2-11.3,32-3.4l51.5-49.1
		c-3.3-4.1-5.4-8.8-6.4-13.7c0,0,0,0,0,0c-0.1-0.7-0.3-1.5-0.4-2.2c-0.2-1.4-0.3-2.8-0.3-4.2c0-7.7,2.7-14.7,7.2-20.2L74,62.4
		c-0.5,0.3-1,0.7-1.6,0.9h-0.1c-0.2,0.1-0.6,0.2-0.7,0.3s-0.3,0.1-0.4,0.2L70.6,64c-0.3,0.1-0.7,0.2-1,0.2l-0.4,0.1l-0.8,0.1H68
		c-0.4,0.1-0.8,0.1-1.2,0.1h0c-7.5,0-13.5-6.1-13.5-13.5v0c0-1.4,0.2-2.7,0.6-4c0.5-1.7,1.3-3.2,2.3-4.6c0.6-0.7,1.2-1.3,1.8-1.8
		c2.4-2,5.4-3.1,8.5-3.1h0.1c3.1,0,6.2,1.1,8.6,3.1c0.4,0.3,0.7,0.6,1,0.9c0.3,0.3,0.6,0.7,0.9,1c1.1,1.4,2,2.9,2.5,4.6
		c0.4,1.3,0.6,2.6,0.6,4c0,0.4-0.1,0.8-0.1,1.2v0.4c0,0.3,0,0.7-0.1,0.8c-0.1,0.1-0.1,0.3-0.1,0.4c-0.1,0.3-0.2,0.7-0.2,1l-0.2,0.6
		l-0.1,0.4c-0.1,0.2-0.2,0.5-0.3,0.7v0.1c-0.2,0.5-0.5,1.1-0.8,1.6l31.1,31.1c5.5-4.6,12.7-7.5,20.5-7.5c8.2,0,15.6,3.1,21.3,8.1
		l39.3-37.5c-2.8-3.9-4.3-8.5-4.3-13.3c0-12.5,10.1-22.6,22.6-22.6l0.1-0.1c5.2,0,10.2,1.8,14.2,5C232.6,29.3,234.1,43.6,226.3,53.3
		z"/>
	<path d="M201.2,177.1L201.2,177.1c0,4.6-3.7,8.4-8.3,8.4h0c-4.6,0-8.3-3.7-8.3-8.4c0-4.6,3.7-8.3,8.3-8.3S201.2,172.5,201.2,177.1z
		"/>
	<path d="M226.2,39.2c0,9.7-7.9,17.6-17.6,17.6h0c-9.7,0-17.6-7.9-17.6-17.6c0-9.7,7.9-17.6,17.6-17.6
		C218.3,21.6,226.2,29.5,226.2,39.2z"/>
	<path d="M75.1,51c0,4.6-3.7,8.3-8.3,8.3s-8.4-3.7-8.4-8.3c0,0,0,0,0,0c0-4.6,3.7-8.3,8.4-8.3C71.4,42.7,75.1,46.4,75.1,51z"/>
	<circle cx="39.2" cy="200.8" r="17.6"/>
	<path d="M326.5,205.2c-6.1-6.5-8.9-17.4-8.6-32.7l1-65.7h-20.3V91.3l20.8-4.1l3.6-35.8h18.9v35.8h34.6v19.6h-34.6v65.4
		c0,8.6,1.6,14.6,4.9,17.9c3.3,3.3,7.6,5.4,12.3,5.7l15.8,1.4V215h-19.3C342.1,215,332.5,211.7,326.5,205.2z"/>
	<path d="M407.1,210.5c-7.9-4-13.5-10.7-17-20.1c-3.4-9.4-5.1-22.5-5.1-39.4c0-17.2,1.7-30.5,5.1-39.9c3.4-9.4,9-16,16.8-19.8
		c7.8-3.8,18.6-5.7,32.5-5.7c12.1,0,21.7,1.3,28.9,3.8c6.7,2.2,12.4,6.9,15.8,13.1c3.3,6.2,5,14.8,5,25.8c0,11.3-3.3,19.5-9.8,24.5
		s-15.9,7.5-28.2,7.5h-42.2c0.2,9.7,1.2,17.2,3.2,22.6c1.8,5.2,5.8,9.4,10.8,11.6c5.3,2.4,12.8,3.6,22.7,3.6h39.9v14.3
		c-8.7,1.3-16.5,2.3-23.1,3c-7.5,0.8-15.1,1.1-22.7,1.1C425.9,216.4,415.1,214.4,407.1,210.5z M449,145.3c6.5,0,11.3-1.2,14.2-3.7
		c2.9-2.5,4.4-6.8,4.4-13c0-9.5-2.1-16.2-6.3-19.8c-4.2-3.7-11.5-5.5-21.8-5.5c-8.1,0-14.4,1.2-18.7,3.6c-4.4,2.4-7.5,6.6-9.3,12.5
		c-1.8,6-2.7,14.6-2.8,25.9L449,145.3z"/>
	<path d="M517.8,106.8h-19.1V91.3l19.1-4.1V74.6c0-14.8,2.9-25.7,8.7-32.7c5.8-7,15.7-10.5,29.7-10.5c8.4,0,16.8,0.9,25.1,2.6v17.2
		h-20.8c-7.3,0-12.3,1.8-14.9,5.2s-3.9,9.2-3.9,17v13.8h37.5v19.6h-37.5V215h-23.9V106.8z"/>
	<path d="M598.5,201.9c-9.4-9.7-14.1-26.5-14.1-50.4c0-17,2.1-30.4,6.2-40.1s10.2-16.6,18.1-20.5c8-4,18.1-6,30.3-6
		c15.1,0,30.1,2,44.6,6v20.3h-33.7c-7.6,0-13.6,1.1-17.9,3.3c-4.3,2.2-7.4,6.2-9.4,11.9c-2,5.7-3,14-3,24.8c0,10.7,1,18.7,3,24.2
		c2,5.5,5.1,9.2,9.4,11.2c4.3,2,10.4,3,18.4,3h35.1v20.1c-7.3,2.2-14.7,3.8-22.2,4.8c-8.4,1.2-16.8,1.9-25.3,1.9
		C621.1,216.4,607.9,211.6,598.5,201.9z"/>
	<path d="M718.6,210.1c-8.4-4.1-14.6-10.8-18.5-20.3c-3.9-9.5-5.9-22.5-5.8-39.3c0-17.3,1.9-30.7,5.8-40.2
		c3.9-9.5,10.1-16.1,18.5-19.8c8.4-3.7,19.9-5.6,34.4-5.6c14.7,0,26.2,2,34.6,5.8c8.4,3.9,14.6,10.6,18.5,20.1
		c3.9,9.5,5.9,22.7,5.9,39.8s-1.9,30.3-5.7,39.8c-3.8,9.5-10,16.2-18.4,20.1c-8.4,3.9-20.1,5.8-34.9,5.9
		C738.5,216.2,727.1,214.2,718.6,210.1z M767.1,185.5c3.2-1.7,5.6-5.2,7.2-10.5s2.4-13.5,2.4-24.5c0-11-0.8-19.1-2.4-24.5
		c-1.6-5.3-4-8.8-7.2-10.5c-3.2-1.7-7.9-2.5-14.1-2.5c-6,0-10.7,0.8-13.8,2.5c-3.2,1.7-5.6,5.2-7.2,10.5c-1.6,5.3-2.4,13.5-2.4,24.5
		c0,11,0.8,19.1,2.4,24.5c1.6,5.3,4,8.8,7.2,10.5c3.2,1.7,7.8,2.5,13.8,2.5C759.2,188,763.9,187.2,767.1,185.5z"/>
	<path d="M828.5,86.8h29.1l6.2,13.1c6-4.6,12.6-8.4,19.6-11.3c6.5-2.6,14.2-3.9,23.2-3.9c7.8,0,14.4,1.6,19.8,4.9
		c5.3,3.2,9.6,7.7,12.4,13.2c6.7-5.1,14-9.3,21.7-12.8c7.2-3.4,15.1-5.2,23.2-5.4c14.7,0,25.1,4.1,31.3,12.2s9.3,19.8,9.3,35.1V215
		H989v-80c0-6-1.6-10.7-4.9-13.8c-3.3-3.2-7.8-4.8-13.5-4.8c-4.9,0.1-9.7,1-14.2,2.9c-4.7,1.8-9.1,4.2-13.2,7.2
		c0.6,3.1,0.9,6.2,1,9.3V215h-35.4v-80c0-6-1.6-10.7-4.9-13.8c-3.3-3.2-7.8-4.8-13.5-4.8c-8.8,0-17.6,3.2-26.5,9.6V215h-35.3V86.8z"
		/>
</g>
</svg>
