<?xml version="1.0" encoding="UTF-8"?><svg id="Capa_1" xmlns="http://www.w3.org/2000/svg" viewBox="0 0 300 300"><path d="M265.39,141.58c0,26.87-5.07,49.73-15.22,68.58-10.15,18.85-23.94,33.23-41.39,43.13-17.45,9.91-37.04,14.86-58.78,14.86s-41.55-4.97-58.96-14.92c-17.41-9.95-31.16-24.34-41.27-43.19-10.11-18.85-15.16-41.67-15.16-68.46s5.05-49.73,15.16-68.58c10.11-18.85,23.86-33.23,41.27-43.13,17.4-9.91,37.06-14.86,58.96-14.86s41.33,4.95,58.78,14.86c17.45,9.91,31.24,24.29,41.39,43.13,10.15,18.85,15.22,41.71,15.22,68.58ZM212.57,141.58c0-17.41-2.59-32.08-7.76-44.04-5.17-11.95-12.45-21.01-21.84-27.19-9.39-6.18-20.38-9.27-32.97-9.27s-23.58,3.09-32.97,9.27c-9.39,6.18-16.66,15.24-21.84,27.19-5.17,11.95-7.76,26.63-7.76,44.04s2.59,32.09,7.76,44.04c5.17,11.95,12.45,21.02,21.84,27.19s20.37,9.26,32.97,9.26,23.58-3.09,32.97-9.26c9.38-6.18,16.66-15.24,21.84-27.19,5.17-11.95,7.76-26.63,7.76-44.04ZM131.95,179.12h44.28l22.26,28.64,21.9,25.51,41.27,51.74h-48.61l-28.4-34.89-14.56-20.7-38.14-50.29Z" fill="#2563eb" stroke-width="0"/></svg>